<?xml version="1.0" encoding="UTF-8" standalone="no"?>
<svg
   width="131"
   height="61"
   viewBox="0 0 131 61"
   fill="none"
   version="1.1"
   id="svg4"
   sodipodi:docname="logo-dark.svg"
   xmlns:inkscape="http://www.inkscape.org/namespaces/inkscape"
   xmlns:sodipodi="http://sodipodi.sourceforge.net/DTD/sodipodi-0.dtd"
   xmlns="http://www.w3.org/2000/svg"
   xmlns:svg="http://www.w3.org/2000/svg">
  <defs
     id="defs8" />
  <sodipodi:namedview
     id="namedview6"
     pagecolor="#ffffff"
     bordercolor="#000000"
     borderopacity="0.25"
     inkscape:showpageshadow="2"
     inkscape:pageopacity="0.0"
     inkscape:pagecheckerboard="0"
     inkscape:deskcolor="#d1d1d1" />
  <path
     d="M24.0651 42C23.0385 42 22.2318 41.78 21.6451 41.34C21.0951 40.8633 20.8201 40.405 20.8201 39.965C20.8201 39.6717 20.9485 39.4333 21.2051 39.25C21.4618 39.03 21.8651 38.92 22.4151 38.92C25.4585 38.92 28.4101 38.3517 31.2701 37.215C34.1301 36.0783 36.7151 34.5383 39.0251 32.595C41.3351 30.615 43.1685 28.36 44.5251 25.83C45.8818 23.3 46.5601 20.6417 46.5601 17.855C46.5601 15.8017 46.1201 14.0783 45.2401 12.685C44.3601 11.2917 43.2051 10.1367 41.7751 9.22C39.6851 7.9 37.2835 6.94667 34.5701 6.36C31.8568 5.77333 29.0885 5.48 26.2651 5.48C23.7351 5.48 21.2601 5.68166 18.8401 6.085C16.4201 6.48833 14.2018 7.00167 12.1851 7.625C10.7185 8.10166 9.32512 8.70666 8.00512 9.44C6.72178 10.1367 5.67678 10.925 4.87012 11.805C4.10012 12.6483 3.71512 13.5467 3.71512 14.5C3.71512 15.4167 4.08178 16.1683 4.81512 16.755C5.58512 17.305 6.55678 17.58 7.73012 17.58C8.94012 17.58 10.2968 17.2683 11.8001 16.645C13.3401 15.985 14.8985 14.9217 16.4751 13.455C16.5485 13.3817 16.6035 13.345 16.6401 13.345C16.7501 13.345 16.8051 13.4367 16.8051 13.62C16.8051 13.84 16.7135 14.1333 16.5301 14.5C16.3835 14.8667 16.1451 15.1967 15.8151 15.49C14.5318 16.6633 13.1018 17.5433 11.5251 18.13C9.94845 18.68 8.42678 18.955 6.96012 18.955C6.59345 18.955 6.20845 18.9367 5.80512 18.9C5.43845 18.8633 5.09012 18.8083 4.76012 18.735C3.51345 18.4417 2.52345 17.855 1.79012 16.975C1.09345 16.095 0.745117 15.0867 0.745117 13.95C0.745117 12.4833 1.18512 11.1817 2.06512 10.045C2.98178 8.90833 4.17345 7.9 5.64012 7.02C7.14345 6.14 8.79345 5.40666 10.5901 4.82C12.7901 4.08666 15.1551 3.5 17.6851 3.06C20.2518 2.62 22.8185 2.4 25.3851 2.4C28.4285 2.4 31.3985 2.74833 34.2951 3.445C37.1918 4.105 39.7951 5.205 42.1051 6.745C44.1585 8.10166 45.7901 9.80666 47.0001 11.86C48.2101 13.8767 48.8151 16.1867 48.8151 18.79C48.8151 22.0167 48.1185 25.0417 46.7251 27.865C45.3318 30.6517 43.4435 33.1083 41.0601 35.235C38.6768 37.3617 36.0185 39.03 33.0851 40.24C30.1518 41.4133 27.1451 42 24.0651 42ZM20.5451 43.32C19.6651 43.32 18.9685 42.9717 18.4551 42.275C17.9418 41.615 17.5385 40.8817 17.2451 40.075C16.9151 39.0117 16.6768 37.8383 16.5301 36.555C16.3835 35.235 16.3101 33.8417 16.3101 32.375C16.3101 30.175 16.4385 27.9017 16.6951 25.555C16.9518 23.2083 17.2635 20.9717 17.6301 18.845C18.0335 16.7183 18.4001 14.9033 18.7301 13.4C18.9501 12.4467 19.1518 11.4933 19.3351 10.54C19.5185 9.55 19.7935 8.63333 20.1601 7.79C20.1968 7.68 20.2701 7.60667 20.3801 7.57C20.5268 7.53333 20.6551 7.515 20.7651 7.515C21.0218 7.515 21.4251 7.57 21.9751 7.68C22.5618 7.79 23.1118 7.955 23.6251 8.175C24.1751 8.395 24.5051 8.67 24.6151 9V9.275C23.8451 11.5483 23.0751 14.0417 22.3051 16.755C21.5351 19.4317 20.8935 22.2183 20.3801 25.115C19.8668 27.975 19.6101 30.8533 19.6101 33.75V33.97C19.6101 34.9967 19.6101 36.0967 19.6101 37.27C19.6468 38.4433 19.7385 39.5617 19.8851 40.625C20.0685 41.6883 20.3435 42.5867 20.7101 43.32H20.5451ZM55.3614 14.17C54.6647 14.17 54.0414 13.9133 53.4914 13.4C52.9781 12.8867 52.7214 12.2633 52.7214 11.53C52.7214 10.7967 52.9781 10.1733 53.4914 9.66C54.0414 9.14666 54.6647 8.89 55.3614 8.89C56.0947 8.89 56.7181 9.14666 57.2314 9.66C57.7447 10.1733 58.0014 10.7967 58.0014 11.53C58.0014 12.2633 57.7447 12.8867 57.2314 13.4C56.7181 13.9133 56.0947 14.17 55.3614 14.17ZM54.9764 42.275C53.6564 42.275 52.6114 41.725 51.8414 40.625C51.1081 39.4883 50.5764 38.0583 50.2464 36.335C49.9531 34.575 49.8064 32.7417 49.8064 30.835C49.8064 29.2583 49.8797 27.7367 50.0264 26.27C50.2097 24.7667 50.4114 23.465 50.6314 22.365C50.8881 21.2283 51.1264 20.4217 51.3464 19.945C51.5664 19.505 51.9147 19.1017 52.3914 18.735C52.9047 18.3317 53.5831 18.13 54.4264 18.13C54.9031 18.13 55.3797 18.185 55.8564 18.295C55.4897 19.5783 55.0497 21.3567 54.5364 23.63C54.0231 25.9033 53.7664 28.415 53.7664 31.165C53.7664 32.1183 53.7847 33.145 53.8214 34.245C53.8581 35.3083 53.9497 36.3167 54.0964 37.27C54.2431 38.1867 54.4631 38.9383 54.7564 39.525C55.0864 40.1117 55.5081 40.405 56.0214 40.405H56.0764C56.3697 40.405 56.6814 40.2583 57.0114 39.965C57.3781 39.6717 57.7631 39.1217 58.1664 38.315C58.7164 37.2517 59.2297 35.8767 59.7064 34.19C59.7797 33.86 59.9264 33.695 60.1464 33.695C60.3297 33.695 60.4214 33.915 60.4214 34.355V34.575C60.3481 35.5283 60.0914 36.61 59.6514 37.82C59.2114 39.03 58.5881 40.075 57.7814 40.955C57.0114 41.835 56.0764 42.275 54.9764 42.275ZM58.2682 60.92C56.9849 60.92 56.0866 60.2967 55.5732 59.05C55.0232 57.8033 54.7482 56.2633 54.7482 54.43C54.7482 53.66 54.7849 52.835 54.8582 51.955C54.9316 51.1117 55.0416 50.2683 55.1882 49.425C55.3716 48.2517 55.6282 47.0967 55.9582 45.96C56.2882 44.8233 56.6366 43.7417 57.0032 42.715C57.5166 41.2483 58.0849 39.8733 58.7082 38.59C59.3682 37.27 59.6982 35.8217 59.6982 34.245V34.025C59.6982 31.8617 59.6066 29.845 59.4232 27.975C59.2766 26.105 59.0749 24.4917 58.8182 23.135C58.5982 21.7783 58.3782 20.7883 58.1582 20.165C58.8916 19.945 59.5149 19.6883 60.0282 19.395C60.5416 19.1017 61.0182 18.9367 61.4582 18.9H61.7332C62.4299 18.9 62.8699 19.2667 63.0532 20C63.2366 20.6967 63.3466 21.54 63.3832 22.53C63.4199 23.19 63.4382 24.0517 63.4382 25.115C63.4382 26.1783 63.4566 27.3517 63.4932 28.635C64.0066 26.8017 64.6116 25.0233 65.3082 23.3C66.0049 21.5767 66.7749 20.165 67.6182 19.065C68.4616 17.9283 69.3232 17.36 70.2032 17.36C71.3032 17.36 72.1466 17.745 72.7332 18.515C73.3566 19.285 73.7966 20.2567 74.0532 21.43C74.3466 22.5667 74.5116 23.7217 74.5482 24.895C74.6216 26.0317 74.6582 26.985 74.6582 27.755C74.6582 29.6617 74.4016 31.66 73.8882 33.75C73.4116 35.84 72.6232 37.6183 71.5232 39.085H71.9082C73.2282 39.085 74.5299 38.48 75.8132 37.27C77.1332 36.0233 78.2516 34.1533 79.1682 31.66C79.3149 31.2933 79.4799 31.11 79.6632 31.11C79.9199 31.11 80.0482 31.3117 80.0482 31.715C80.0482 31.8617 80.0299 31.9717 79.9932 32.045C79.0032 34.905 77.7749 36.9767 76.3082 38.26C74.8782 39.5433 73.4666 40.185 72.0732 40.185C71.8532 40.185 71.6332 40.1667 71.4132 40.13C71.1932 40.0567 70.9732 40.0017 70.7532 39.965C70.1666 40.5883 69.4882 41.0833 68.7182 41.45C67.9482 41.8167 67.0866 42 66.1332 42C65.0699 42 64.2632 41.78 63.7132 41.34V43.76C63.7132 44.8967 63.7132 45.9233 63.7132 46.84C63.7132 47.7933 63.6949 48.5633 63.6582 49.15C63.5482 51.46 63.3466 53.3483 63.0532 54.815C62.6866 56.6117 62.1366 58.0783 61.4032 59.215C60.6699 60.3517 59.6799 60.92 58.4332 60.92H58.2682ZM65.3082 40.515C65.8949 40.515 66.4266 40.3317 66.9032 39.965C67.7466 39.305 68.4249 38.2417 68.9382 36.775C69.4882 35.2717 69.8732 33.7867 70.0932 32.32C70.2032 31.6967 70.2766 30.945 70.3132 30.065C70.3866 29.185 70.4232 28.2867 70.4232 27.37C70.4232 25.7933 70.2949 24.3817 70.0382 23.135C69.7816 21.8517 69.2866 21.21 68.5532 21.21C68.1132 21.21 67.6549 21.595 67.1782 22.365C66.7382 23.135 66.2982 24.1433 65.8582 25.39C65.4182 26.6367 64.9966 27.975 64.5932 29.405C64.2266 30.7983 63.8966 32.1367 63.6032 33.42C63.6399 34.4833 63.6582 35.5467 63.6582 36.61C63.6582 37.6733 63.6582 38.7367 63.6582 39.8C64.1349 40.2767 64.6849 40.515 65.3082 40.515ZM58.0482 59.16C58.2682 59.16 58.4882 58.995 58.7082 58.665C58.9649 58.3717 59.1849 57.8767 59.3682 57.18C59.6249 56.2267 59.7899 54.9983 59.8632 53.495C59.9732 51.9917 60.0282 50.415 60.0282 48.765C60.0282 46.9683 59.9916 45.2083 59.9182 43.485C59.8449 41.7983 59.7716 40.3867 59.6982 39.25C59.3682 40.02 59.0016 40.9367 58.5982 42C58.1949 43.0633 57.8466 44.1817 57.5532 45.355C57.1866 46.675 56.8932 48.0133 56.6732 49.37C56.4166 50.7633 56.2882 52.1567 56.2882 53.55C56.2882 54.7233 56.3982 55.8967 56.6182 57.07C56.7282 57.5833 56.9299 58.06 57.2232 58.5C57.4799 58.94 57.7549 59.16 58.0482 59.16ZM85.4924 43.045C83.7324 43.045 82.3024 42.5133 81.2024 41.45C80.139 40.35 79.3507 39.0117 78.8374 37.435C78.3607 35.8217 78.1224 34.245 78.1224 32.705C78.1224 30.945 78.3057 29.185 78.6724 27.425C79.039 25.6283 79.6074 23.9967 80.3774 22.53C81.184 21.0633 82.1924 19.89 83.4024 19.01C84.6124 18.0933 86.0424 17.635 87.6924 17.635C88.8657 17.635 89.7824 17.9833 90.4424 18.68C91.1024 19.3767 91.4324 20.4033 91.4324 21.76C91.4324 23.5933 90.9741 25.225 90.0574 26.655C89.1774 28.0483 88.0591 29.185 86.7024 30.065C85.3457 30.945 83.934 31.55 82.4674 31.88V32.155C82.4674 33.6583 82.614 35.07 82.9074 36.39C83.2374 37.6733 83.7507 38.7183 84.4474 39.525C85.1807 40.295 86.1341 40.68 87.3074 40.68C88.7374 40.68 89.8374 40.0933 90.6074 38.92C91.3774 37.71 91.9824 36.1883 92.4224 34.355C92.459 34.2083 92.514 34.08 92.5874 33.97C92.6974 33.8233 92.7891 33.75 92.8624 33.75C93.1924 33.75 93.339 33.9883 93.3024 34.465C93.1924 35.455 92.9724 36.39 92.6424 37.27C92.3124 38.15 91.9641 38.9017 91.5974 39.525C90.9007 40.6617 90.0574 41.5233 89.0674 42.11C88.1141 42.7333 86.9224 43.045 85.4924 43.045ZM82.5224 30.615C83.6957 30.3217 84.7224 29.7533 85.6024 28.91C86.4824 28.03 87.1607 27.0033 87.6374 25.83C88.1507 24.6567 88.4074 23.465 88.4074 22.255V21.98C88.4074 21.32 88.2974 20.6967 88.0774 20.11C87.8941 19.5233 87.5274 19.23 86.9774 19.23C86.3174 19.23 85.7307 19.56 85.2174 20.22C84.7407 20.8433 84.319 21.65 83.9524 22.64C83.6224 23.63 83.3474 24.6567 83.1274 25.72C82.9074 26.7833 82.7424 27.755 82.6324 28.635C82.559 29.515 82.5224 30.1567 82.5224 30.56V30.615ZM97.9056 42.605C96.2556 42.605 94.8623 42.22 93.7256 41.45C92.6256 40.6433 92.0756 39.2317 92.0756 37.215C92.0756 37.1417 92.0756 36.9767 92.0756 36.72C92.1123 36.4267 92.149 36.1333 92.1856 35.84C91.9656 35.4367 91.8556 34.8867 91.8556 34.19C91.8556 33.75 91.929 33.365 92.0756 33.035C92.2223 32.705 92.4423 32.54 92.7356 32.54H92.7906C92.9006 32.54 93.0473 32.6683 93.2306 32.925C93.7073 31.5683 94.1473 30.175 94.5506 28.745C94.954 27.2783 95.3206 25.9767 95.6506 24.84C96.0173 23.52 96.4756 22.1083 97.0256 20.605C97.6123 19.065 98.529 17.8917 99.7756 17.085C100.729 16.4617 101.756 16.15 102.856 16.15C102.929 16.15 103.021 16.1683 103.131 16.205C103.241 16.205 103.332 16.205 103.406 16.205C103.699 16.2417 103.846 16.37 103.846 16.59C103.846 16.8467 103.717 16.975 103.461 16.975C103.057 17.0117 102.764 17.3417 102.581 17.965C102.397 18.5517 102.306 19.23 102.306 20C102.306 20.1833 102.306 20.385 102.306 20.605C102.306 20.825 102.324 21.0267 102.361 21.21C102.507 22.42 102.837 23.7583 103.351 25.225C103.864 26.655 104.341 28.1033 104.781 29.57C105.257 31 105.496 32.3383 105.496 33.585V33.86C105.496 34.3367 105.459 34.85 105.386 35.4C105.349 35.95 105.239 36.4817 105.056 36.995C105.569 36.9583 106.064 36.9033 106.541 36.83C107.054 36.72 107.512 36.5917 107.916 36.445C108.429 36.225 108.832 35.9683 109.126 35.675C109.456 35.3817 109.731 35.0517 109.951 34.685C110.024 34.575 110.116 34.52 110.226 34.52C110.519 34.52 110.666 34.7033 110.666 35.07C110.666 35.18 110.629 35.3083 110.556 35.455C110.152 36.2617 109.419 36.9217 108.356 37.435C107.292 37.9483 106.046 38.2417 104.616 38.315C104.102 39.4883 103.296 40.4967 102.196 41.34C101.132 42.1833 99.7023 42.605 97.9056 42.605ZM100.546 36.39C100.619 35.9867 100.674 35.565 100.711 35.125C100.747 34.685 100.766 34.245 100.766 33.805C100.766 33.1083 100.729 32.4117 100.656 31.715C100.582 30.9817 100.491 30.2667 100.381 29.57C100.124 27.8467 99.8123 26.27 99.4456 24.84C99.1156 23.41 98.9506 22.1267 98.9506 20.99C98.9506 20.4033 99.0056 19.8717 99.1156 19.395C98.9323 19.395 98.7306 19.67 98.5106 20.22C98.2906 20.77 98.0706 21.3933 97.8506 22.09C97.6306 22.7867 97.4473 23.41 97.3006 23.96C96.8606 25.5367 96.384 27.1683 95.8706 28.855C95.3573 30.505 94.8073 32.1367 94.2206 33.75C94.624 34.0067 95.0823 34.2633 95.5956 34.52C96.1456 34.7767 96.6773 35.015 97.1906 35.235C97.6673 35.455 98.1806 35.675 98.7306 35.895C99.3173 36.0783 99.9223 36.2433 100.546 36.39ZM96.4206 40.79H96.6406C97.3006 40.7167 97.9606 40.4967 98.6206 40.13C99.2806 39.7267 99.7573 39.1217 100.051 38.315C100.051 38.2783 100.051 38.26 100.051 38.26C100.087 38.2233 100.106 38.1867 100.106 38.15C98.749 38.04 97.4656 37.875 96.2556 37.655C95.0823 37.3983 94.129 37.0867 93.3956 36.72C93.3956 36.83 93.3773 36.94 93.3406 37.05C93.3406 37.16 93.3406 37.2517 93.3406 37.325C93.3406 38.425 93.6156 39.2867 94.1656 39.91C94.7523 40.4967 95.504 40.79 96.4206 40.79ZM123.834 42.275C122.844 42.275 122.001 41.9633 121.304 41.34C120.644 40.68 120.223 39.8367 120.039 38.81C119.966 38.4067 119.911 37.9667 119.874 37.49C119.838 37.0133 119.819 36.5183 119.819 36.005C119.819 34.8317 119.874 33.6217 119.984 32.375C120.131 31.0917 120.296 29.8817 120.479 28.745C120.663 27.6083 120.809 26.6733 120.919 25.94C121.029 25.28 121.084 24.6017 121.084 23.905C121.084 23.2817 121.029 22.7317 120.919 22.255C120.809 21.7783 120.571 21.54 120.204 21.54C120.021 21.54 119.783 21.65 119.489 21.87C119.196 22.09 118.848 22.4567 118.444 22.97C117.748 23.8867 117.014 25.2433 116.244 27.04C115.511 28.8 114.943 30.7617 114.539 32.925C114.503 33.255 114.448 33.7867 114.374 34.52C114.301 35.2533 114.228 36.0417 114.154 36.885C114.081 37.7283 114.008 38.48 113.934 39.14C113.861 39.8 113.769 40.2217 113.659 40.405C113.293 41.1017 112.816 41.5783 112.229 41.835C111.679 42.0917 111.166 42.22 110.689 42.22C110.763 41.9267 110.818 41.395 110.854 40.625C110.891 39.855 110.928 38.9383 110.964 37.875C111.038 36.995 111.074 36.1333 111.074 35.29C111.074 34.41 111.074 33.53 111.074 32.65C111.074 30.67 111.038 28.69 110.964 26.71C110.891 24.73 110.781 22.7683 110.634 20.825C110.598 20.2017 110.543 19.3583 110.469 18.295C110.433 17.195 110.414 16.0033 110.414 14.72C110.414 13.1433 110.488 11.5117 110.634 9.825C110.781 8.13833 111.056 6.56167 111.459 5.095C111.863 3.62833 112.431 2.455 113.164 1.575C113.934 0.658331 114.924 0.199997 116.134 0.199997C117.528 0.199997 118.481 0.749998 118.994 1.85C119.508 2.91333 119.764 4.215 119.764 5.755C119.764 7.33166 119.581 9.01833 119.214 10.815C118.884 12.575 118.499 14.17 118.059 15.6C117.656 17.03 117.344 18.0567 117.124 18.68C116.648 20.0367 116.098 21.4117 115.474 22.805C114.888 24.1983 114.283 25.5183 113.659 26.765L113.824 30.89C114.228 29.2033 114.741 27.5717 115.364 25.995C116.024 24.3817 116.849 22.8417 117.839 21.375C118.389 20.5317 119.068 19.7067 119.874 18.9C120.718 18.0567 121.689 17.635 122.789 17.635C123.889 17.635 124.623 18.0017 124.989 18.735C125.356 19.4683 125.539 20.275 125.539 21.155C125.539 22.0717 125.448 22.8967 125.264 23.63C125.228 23.9233 125.118 24.4917 124.934 25.335C124.751 26.1783 124.549 27.1867 124.329 28.36C124.146 29.5333 123.981 30.7617 123.834 32.045C123.688 33.2917 123.614 34.465 123.614 35.565C123.614 36.555 123.706 37.4533 123.889 38.26C124.219 39.5433 124.788 40.185 125.594 40.185C125.814 40.185 126.108 40.0933 126.474 39.91C127.244 39.4333 127.831 38.7733 128.234 37.93C128.638 37.05 129.023 36.0417 129.389 34.905C129.536 34.5017 129.756 34.3 130.049 34.3C130.233 34.3 130.324 34.4833 130.324 34.85V35.07C130.324 35.3267 130.251 35.675 130.104 36.115C129.994 36.5183 129.866 36.9217 129.719 37.325C129.243 38.6817 128.528 39.855 127.574 40.845C126.658 41.7983 125.448 42.275 123.944 42.275H123.834ZM113.604 24.455C114.411 22.6583 115.144 20.77 115.804 18.79C116.464 16.7733 116.996 14.775 117.399 12.795C117.803 10.815 118.004 9 118.004 7.35V6.8C117.968 5.73666 117.839 4.85667 117.619 4.16C117.436 3.46333 117.124 3.115 116.684 3.115C116.134 3.115 115.639 3.90333 115.199 5.48C114.759 7.02 114.411 8.87166 114.154 11.035C113.934 12.9417 113.788 14.8483 113.714 16.755C113.641 18.625 113.604 20.4767 113.604 22.31V24.455Z"
     fill="#FFFFF0"
     id="path2" />
</svg>
