<svg width="130" height="61" viewBox="0 0 130 61" fill="none" xmlns="http://www.w3.org/2000/svg">
<path d="M23.5651 42C22.5385 42 21.7318 41.78 21.1451 41.34C20.5951 40.8633 20.3201 40.405 20.3201 39.965C20.3201 39.6717 20.4485 39.4333 20.7051 39.25C20.9618 39.03 21.3651 38.92 21.9151 38.92C24.9585 38.92 27.9101 38.3517 30.7701 37.215C33.6301 36.0783 36.2151 34.5383 38.5251 32.595C40.8351 30.615 42.6685 28.36 44.0251 25.83C45.3818 23.3 46.0601 20.6417 46.0601 17.855C46.0601 15.8017 45.6201 14.0783 44.7401 12.685C43.8601 11.2917 42.7051 10.1367 41.2751 9.22C39.1851 7.9 36.7835 6.94667 34.0701 6.36C31.3568 5.77333 28.5885 5.48 25.7651 5.48C23.2351 5.48 20.7601 5.68166 18.3401 6.085C15.9201 6.48833 13.7018 7.00167 11.6851 7.625C10.2185 8.10166 8.82512 8.70666 7.50512 9.44C6.22178 10.1367 5.17678 10.925 4.37012 11.805C3.60012 12.6483 3.21512 13.5467 3.21512 14.5C3.21512 15.4167 3.58178 16.1683 4.31512 16.755C5.08512 17.305 6.05678 17.58 7.23012 17.58C8.44012 17.58 9.79678 17.2683 11.3001 16.645C12.8401 15.985 14.3985 14.9217 15.9751 13.455C16.0485 13.3817 16.1035 13.345 16.1401 13.345C16.2501 13.345 16.3051 13.4367 16.3051 13.62C16.3051 13.84 16.2135 14.1333 16.0301 14.5C15.8835 14.8667 15.6451 15.1967 15.3151 15.49C14.0318 16.6633 12.6018 17.5433 11.0251 18.13C9.44845 18.68 7.92678 18.955 6.46012 18.955C6.09345 18.955 5.70845 18.9367 5.30512 18.9C4.93845 18.8633 4.59012 18.8083 4.26012 18.735C3.01345 18.4417 2.02345 17.855 1.29012 16.975C0.593451 16.095 0.245117 15.0867 0.245117 13.95C0.245117 12.4833 0.685117 11.1817 1.56512 10.045C2.48178 8.90833 3.67345 7.9 5.14012 7.02C6.64345 6.14 8.29345 5.40666 10.0901 4.82C12.2901 4.08666 14.6551 3.5 17.1851 3.06C19.7518 2.62 22.3185 2.4 24.8851 2.4C27.9285 2.4 30.8985 2.74833 33.7951 3.445C36.6918 4.105 39.2951 5.205 41.6051 6.745C43.6585 8.10166 45.2901 9.80666 46.5001 11.86C47.7101 13.8767 48.3151 16.1867 48.3151 18.79C48.3151 22.0167 47.6185 25.0417 46.2251 27.865C44.8318 30.6517 42.9435 33.1083 40.5601 35.235C38.1768 37.3617 35.5185 39.03 32.5851 40.24C29.6518 41.4133 26.6451 42 23.5651 42ZM20.0451 43.32C19.1651 43.32 18.4685 42.9717 17.9551 42.275C17.4418 41.615 17.0385 40.8817 16.7451 40.075C16.4151 39.0117 16.1768 37.8383 16.0301 36.555C15.8835 35.235 15.8101 33.8417 15.8101 32.375C15.8101 30.175 15.9385 27.9017 16.1951 25.555C16.4518 23.2083 16.7635 20.9717 17.1301 18.845C17.5335 16.7183 17.9001 14.9033 18.2301 13.4C18.4501 12.4467 18.6518 11.4933 18.8351 10.54C19.0185 9.55 19.2935 8.63333 19.6601 7.79C19.6968 7.68 19.7701 7.60667 19.8801 7.57C20.0268 7.53333 20.1551 7.515 20.2651 7.515C20.5218 7.515 20.9251 7.57 21.4751 7.68C22.0618 7.79 22.6118 7.955 23.1251 8.175C23.6751 8.395 24.0051 8.67 24.1151 9V9.275C23.3451 11.5483 22.5751 14.0417 21.8051 16.755C21.0351 19.4317 20.3935 22.2183 19.8801 25.115C19.3668 27.975 19.1101 30.8533 19.1101 33.75V33.97C19.1101 34.9967 19.1101 36.0967 19.1101 37.27C19.1468 38.4433 19.2385 39.5617 19.3851 40.625C19.5685 41.6883 19.8435 42.5867 20.2101 43.32H20.0451ZM54.8614 14.17C54.1647 14.17 53.5414 13.9133 52.9914 13.4C52.4781 12.8867 52.2214 12.2633 52.2214 11.53C52.2214 10.7967 52.4781 10.1733 52.9914 9.66C53.5414 9.14666 54.1647 8.89 54.8614 8.89C55.5947 8.89 56.2181 9.14666 56.7314 9.66C57.2447 10.1733 57.5014 10.7967 57.5014 11.53C57.5014 12.2633 57.2447 12.8867 56.7314 13.4C56.2181 13.9133 55.5947 14.17 54.8614 14.17ZM54.4764 42.275C53.1564 42.275 52.1114 41.725 51.3414 40.625C50.6081 39.4883 50.0764 38.0583 49.7464 36.335C49.4531 34.575 49.3064 32.7417 49.3064 30.835C49.3064 29.2583 49.3797 27.7367 49.5264 26.27C49.7097 24.7667 49.9114 23.465 50.1314 22.365C50.3881 21.2283 50.6264 20.4217 50.8464 19.945C51.0664 19.505 51.4147 19.1017 51.8914 18.735C52.4047 18.3317 53.0831 18.13 53.9264 18.13C54.4031 18.13 54.8797 18.185 55.3564 18.295C54.9897 19.5783 54.5497 21.3567 54.0364 23.63C53.5231 25.9033 53.2664 28.415 53.2664 31.165C53.2664 32.1183 53.2847 33.145 53.3214 34.245C53.3581 35.3083 53.4497 36.3167 53.5964 37.27C53.7431 38.1867 53.9631 38.9383 54.2564 39.525C54.5864 40.1117 55.0081 40.405 55.5214 40.405H55.5764C55.8697 40.405 56.1814 40.2583 56.5114 39.965C56.8781 39.6717 57.2631 39.1217 57.6664 38.315C58.2164 37.2517 58.7297 35.8767 59.2064 34.19C59.2797 33.86 59.4264 33.695 59.6464 33.695C59.8297 33.695 59.9214 33.915 59.9214 34.355V34.575C59.8481 35.5283 59.5914 36.61 59.1514 37.82C58.7114 39.03 58.0881 40.075 57.2814 40.955C56.5114 41.835 55.5764 42.275 54.4764 42.275ZM57.7682 60.92C56.4849 60.92 55.5866 60.2967 55.0732 59.05C54.5232 57.8033 54.2482 56.2633 54.2482 54.43C54.2482 53.66 54.2849 52.835 54.3582 51.955C54.4316 51.1117 54.5416 50.2683 54.6882 49.425C54.8716 48.2517 55.1282 47.0967 55.4582 45.96C55.7882 44.8233 56.1366 43.7417 56.5032 42.715C57.0166 41.2483 57.5849 39.8733 58.2082 38.59C58.8682 37.27 59.1982 35.8217 59.1982 34.245V34.025C59.1982 31.8617 59.1066 29.845 58.9232 27.975C58.7766 26.105 58.5749 24.4917 58.3182 23.135C58.0982 21.7783 57.8782 20.7883 57.6582 20.165C58.3916 19.945 59.0149 19.6883 59.5282 19.395C60.0416 19.1017 60.5182 18.9367 60.9582 18.9H61.2332C61.9299 18.9 62.3699 19.2667 62.5532 20C62.7366 20.6967 62.8466 21.54 62.8832 22.53C62.9199 23.19 62.9382 24.0517 62.9382 25.115C62.9382 26.1783 62.9566 27.3517 62.9932 28.635C63.5066 26.8017 64.1116 25.0233 64.8082 23.3C65.5049 21.5767 66.2749 20.165 67.1182 19.065C67.9616 17.9283 68.8232 17.36 69.7032 17.36C70.8032 17.36 71.6466 17.745 72.2332 18.515C72.8566 19.285 73.2966 20.2567 73.5532 21.43C73.8466 22.5667 74.0116 23.7217 74.0482 24.895C74.1216 26.0317 74.1582 26.985 74.1582 27.755C74.1582 29.6617 73.9016 31.66 73.3882 33.75C72.9116 35.84 72.1232 37.6183 71.0232 39.085H71.4082C72.7282 39.085 74.0299 38.48 75.3132 37.27C76.6332 36.0233 77.7516 34.1533 78.6682 31.66C78.8149 31.2933 78.9799 31.11 79.1632 31.11C79.4199 31.11 79.5482 31.3117 79.5482 31.715C79.5482 31.8617 79.5299 31.9717 79.4932 32.045C78.5032 34.905 77.2749 36.9767 75.8082 38.26C74.3782 39.5433 72.9666 40.185 71.5732 40.185C71.3532 40.185 71.1332 40.1667 70.9132 40.13C70.6932 40.0567 70.4732 40.0017 70.2532 39.965C69.6666 40.5883 68.9882 41.0833 68.2182 41.45C67.4482 41.8167 66.5866 42 65.6332 42C64.5699 42 63.7632 41.78 63.2132 41.34V43.76C63.2132 44.8967 63.2132 45.9233 63.2132 46.84C63.2132 47.7933 63.1949 48.5633 63.1582 49.15C63.0482 51.46 62.8466 53.3483 62.5532 54.815C62.1866 56.6117 61.6366 58.0783 60.9032 59.215C60.1699 60.3517 59.1799 60.92 57.9332 60.92H57.7682ZM64.8082 40.515C65.3949 40.515 65.9266 40.3317 66.4032 39.965C67.2466 39.305 67.9249 38.2417 68.4382 36.775C68.9882 35.2717 69.3732 33.7867 69.5932 32.32C69.7032 31.6967 69.7766 30.945 69.8132 30.065C69.8866 29.185 69.9232 28.2867 69.9232 27.37C69.9232 25.7933 69.7949 24.3817 69.5382 23.135C69.2816 21.8517 68.7866 21.21 68.0532 21.21C67.6132 21.21 67.1549 21.595 66.6782 22.365C66.2382 23.135 65.7982 24.1433 65.3582 25.39C64.9182 26.6367 64.4966 27.975 64.0932 29.405C63.7266 30.7983 63.3966 32.1367 63.1032 33.42C63.1399 34.4833 63.1582 35.5467 63.1582 36.61C63.1582 37.6733 63.1582 38.7367 63.1582 39.8C63.6349 40.2767 64.1849 40.515 64.8082 40.515ZM57.5482 59.16C57.7682 59.16 57.9882 58.995 58.2082 58.665C58.4649 58.3717 58.6849 57.8767 58.8682 57.18C59.1249 56.2267 59.2899 54.9983 59.3632 53.495C59.4732 51.9917 59.5282 50.415 59.5282 48.765C59.5282 46.9683 59.4916 45.2083 59.4182 43.485C59.3449 41.7983 59.2716 40.3867 59.1982 39.25C58.8682 40.02 58.5016 40.9367 58.0982 42C57.6949 43.0633 57.3466 44.1817 57.0532 45.355C56.6866 46.675 56.3932 48.0133 56.1732 49.37C55.9166 50.7633 55.7882 52.1567 55.7882 53.55C55.7882 54.7233 55.8982 55.8967 56.1182 57.07C56.2282 57.5833 56.4299 58.06 56.7232 58.5C56.9799 58.94 57.2549 59.16 57.5482 59.16ZM84.9924 43.045C83.2324 43.045 81.8024 42.5133 80.7024 41.45C79.639 40.35 78.8507 39.0117 78.3374 37.435C77.8607 35.8217 77.6224 34.245 77.6224 32.705C77.6224 30.945 77.8057 29.185 78.1724 27.425C78.539 25.6283 79.1074 23.9967 79.8774 22.53C80.684 21.0633 81.6924 19.89 82.9024 19.01C84.1124 18.0933 85.5424 17.635 87.1924 17.635C88.3657 17.635 89.2824 17.9833 89.9424 18.68C90.6024 19.3767 90.9324 20.4033 90.9324 21.76C90.9324 23.5933 90.4741 25.225 89.5574 26.655C88.6774 28.0483 87.5591 29.185 86.2024 30.065C84.8457 30.945 83.434 31.55 81.9674 31.88V32.155C81.9674 33.6583 82.114 35.07 82.4074 36.39C82.7374 37.6733 83.2507 38.7183 83.9474 39.525C84.6807 40.295 85.6341 40.68 86.8074 40.68C88.2374 40.68 89.3374 40.0933 90.1074 38.92C90.8774 37.71 91.4824 36.1883 91.9224 34.355C91.959 34.2083 92.014 34.08 92.0874 33.97C92.1974 33.8233 92.2891 33.75 92.3624 33.75C92.6924 33.75 92.839 33.9883 92.8024 34.465C92.6924 35.455 92.4724 36.39 92.1424 37.27C91.8124 38.15 91.4641 38.9017 91.0974 39.525C90.4007 40.6617 89.5574 41.5233 88.5674 42.11C87.6141 42.7333 86.4224 43.045 84.9924 43.045ZM82.0224 30.615C83.1957 30.3217 84.2224 29.7533 85.1024 28.91C85.9824 28.03 86.6607 27.0033 87.1374 25.83C87.6507 24.6567 87.9074 23.465 87.9074 22.255V21.98C87.9074 21.32 87.7974 20.6967 87.5774 20.11C87.3941 19.5233 87.0274 19.23 86.4774 19.23C85.8174 19.23 85.2307 19.56 84.7174 20.22C84.2407 20.8433 83.819 21.65 83.4524 22.64C83.1224 23.63 82.8474 24.6567 82.6274 25.72C82.4074 26.7833 82.2424 27.755 82.1324 28.635C82.059 29.515 82.0224 30.1567 82.0224 30.56V30.615ZM97.4056 42.605C95.7556 42.605 94.3623 42.22 93.2256 41.45C92.1256 40.6433 91.5756 39.2317 91.5756 37.215C91.5756 37.1417 91.5756 36.9767 91.5756 36.72C91.6123 36.4267 91.649 36.1333 91.6856 35.84C91.4656 35.4367 91.3556 34.8867 91.3556 34.19C91.3556 33.75 91.429 33.365 91.5756 33.035C91.7223 32.705 91.9423 32.54 92.2356 32.54H92.2906C92.4006 32.54 92.5473 32.6683 92.7306 32.925C93.2073 31.5683 93.6473 30.175 94.0506 28.745C94.454 27.2783 94.8206 25.9767 95.1506 24.84C95.5173 23.52 95.9756 22.1083 96.5256 20.605C97.1123 19.065 98.029 17.8917 99.2756 17.085C100.229 16.4617 101.256 16.15 102.356 16.15C102.429 16.15 102.521 16.1683 102.631 16.205C102.741 16.205 102.832 16.205 102.906 16.205C103.199 16.2417 103.346 16.37 103.346 16.59C103.346 16.8467 103.217 16.975 102.961 16.975C102.557 17.0117 102.264 17.3417 102.081 17.965C101.897 18.5517 101.806 19.23 101.806 20C101.806 20.1833 101.806 20.385 101.806 20.605C101.806 20.825 101.824 21.0267 101.861 21.21C102.007 22.42 102.337 23.7583 102.851 25.225C103.364 26.655 103.841 28.1033 104.281 29.57C104.757 31 104.996 32.3383 104.996 33.585V33.86C104.996 34.3367 104.959 34.85 104.886 35.4C104.849 35.95 104.739 36.4817 104.556 36.995C105.069 36.9583 105.564 36.9033 106.041 36.83C106.554 36.72 107.012 36.5917 107.416 36.445C107.929 36.225 108.332 35.9683 108.626 35.675C108.956 35.3817 109.231 35.0517 109.451 34.685C109.524 34.575 109.616 34.52 109.726 34.52C110.019 34.52 110.166 34.7033 110.166 35.07C110.166 35.18 110.129 35.3083 110.056 35.455C109.652 36.2617 108.919 36.9217 107.856 37.435C106.792 37.9483 105.546 38.2417 104.116 38.315C103.602 39.4883 102.796 40.4967 101.696 41.34C100.632 42.1833 99.2023 42.605 97.4056 42.605ZM100.046 36.39C100.119 35.9867 100.174 35.565 100.211 35.125C100.247 34.685 100.266 34.245 100.266 33.805C100.266 33.1083 100.229 32.4117 100.156 31.715C100.082 30.9817 99.9906 30.2667 99.8806 29.57C99.624 27.8467 99.3123 26.27 98.9456 24.84C98.6156 23.41 98.4506 22.1267 98.4506 20.99C98.4506 20.4033 98.5056 19.8717 98.6156 19.395C98.4323 19.395 98.2306 19.67 98.0106 20.22C97.7906 20.77 97.5706 21.3933 97.3506 22.09C97.1306 22.7867 96.9473 23.41 96.8006 23.96C96.3606 25.5367 95.884 27.1683 95.3706 28.855C94.8573 30.505 94.3073 32.1367 93.7206 33.75C94.124 34.0067 94.5823 34.2633 95.0956 34.52C95.6456 34.7767 96.1773 35.015 96.6906 35.235C97.1673 35.455 97.6806 35.675 98.2306 35.895C98.8173 36.0783 99.4223 36.2433 100.046 36.39ZM95.9206 40.79H96.1406C96.8006 40.7167 97.4606 40.4967 98.1206 40.13C98.7806 39.7267 99.2573 39.1217 99.5506 38.315C99.5506 38.2783 99.5506 38.26 99.5506 38.26C99.5873 38.2233 99.6056 38.1867 99.6056 38.15C98.249 38.04 96.9656 37.875 95.7556 37.655C94.5823 37.3983 93.629 37.0867 92.8956 36.72C92.8956 36.83 92.8773 36.94 92.8406 37.05C92.8406 37.16 92.8406 37.2517 92.8406 37.325C92.8406 38.425 93.1156 39.2867 93.6656 39.91C94.2523 40.4967 95.004 40.79 95.9206 40.79ZM123.334 42.275C122.344 42.275 121.501 41.9633 120.804 41.34C120.144 40.68 119.723 39.8367 119.539 38.81C119.466 38.4067 119.411 37.9667 119.374 37.49C119.338 37.0133 119.319 36.5183 119.319 36.005C119.319 34.8317 119.374 33.6217 119.484 32.375C119.631 31.0917 119.796 29.8817 119.979 28.745C120.163 27.6083 120.309 26.6733 120.419 25.94C120.529 25.28 120.584 24.6017 120.584 23.905C120.584 23.2817 120.529 22.7317 120.419 22.255C120.309 21.7783 120.071 21.54 119.704 21.54C119.521 21.54 119.283 21.65 118.989 21.87C118.696 22.09 118.348 22.4567 117.944 22.97C117.248 23.8867 116.514 25.2433 115.744 27.04C115.011 28.8 114.443 30.7617 114.039 32.925C114.003 33.255 113.948 33.7867 113.874 34.52C113.801 35.2533 113.728 36.0417 113.654 36.885C113.581 37.7283 113.508 38.48 113.434 39.14C113.361 39.8 113.269 40.2217 113.159 40.405C112.793 41.1017 112.316 41.5783 111.729 41.835C111.179 42.0917 110.666 42.22 110.189 42.22C110.263 41.9267 110.318 41.395 110.354 40.625C110.391 39.855 110.428 38.9383 110.464 37.875C110.538 36.995 110.574 36.1333 110.574 35.29C110.574 34.41 110.574 33.53 110.574 32.65C110.574 30.67 110.538 28.69 110.464 26.71C110.391 24.73 110.281 22.7683 110.134 20.825C110.098 20.2017 110.043 19.3583 109.969 18.295C109.933 17.195 109.914 16.0033 109.914 14.72C109.914 13.1433 109.988 11.5117 110.134 9.825C110.281 8.13833 110.556 6.56167 110.959 5.095C111.363 3.62833 111.931 2.455 112.664 1.575C113.434 0.658331 114.424 0.199997 115.634 0.199997C117.028 0.199997 117.981 0.749998 118.494 1.85C119.008 2.91333 119.264 4.215 119.264 5.755C119.264 7.33166 119.081 9.01833 118.714 10.815C118.384 12.575 117.999 14.17 117.559 15.6C117.156 17.03 116.844 18.0567 116.624 18.68C116.148 20.0367 115.598 21.4117 114.974 22.805C114.388 24.1983 113.783 25.5183 113.159 26.765L113.324 30.89C113.728 29.2033 114.241 27.5717 114.864 25.995C115.524 24.3817 116.349 22.8417 117.339 21.375C117.889 20.5317 118.568 19.7067 119.374 18.9C120.218 18.0567 121.189 17.635 122.289 17.635C123.389 17.635 124.123 18.0017 124.489 18.735C124.856 19.4683 125.039 20.275 125.039 21.155C125.039 22.0717 124.948 22.8967 124.764 23.63C124.728 23.9233 124.618 24.4917 124.434 25.335C124.251 26.1783 124.049 27.1867 123.829 28.36C123.646 29.5333 123.481 30.7617 123.334 32.045C123.188 33.2917 123.114 34.465 123.114 35.565C123.114 36.555 123.206 37.4533 123.389 38.26C123.719 39.5433 124.288 40.185 125.094 40.185C125.314 40.185 125.608 40.0933 125.974 39.91C126.744 39.4333 127.331 38.7733 127.734 37.93C128.138 37.05 128.523 36.0417 128.889 34.905C129.036 34.5017 129.256 34.3 129.549 34.3C129.733 34.3 129.824 34.4833 129.824 34.85V35.07C129.824 35.3267 129.751 35.675 129.604 36.115C129.494 36.5183 129.366 36.9217 129.219 37.325C128.743 38.6817 128.028 39.855 127.074 40.845C126.158 41.7983 124.948 42.275 123.444 42.275H123.334ZM113.104 24.455C113.911 22.6583 114.644 20.77 115.304 18.79C115.964 16.7733 116.496 14.775 116.899 12.795C117.303 10.815 117.504 9 117.504 7.35V6.8C117.468 5.73666 117.339 4.85667 117.119 4.16C116.936 3.46333 116.624 3.115 116.184 3.115C115.634 3.115 115.139 3.90333 114.699 5.48C114.259 7.02 113.911 8.87166 113.654 11.035C113.434 12.9417 113.288 14.8483 113.214 16.755C113.141 18.625 113.104 20.4767 113.104 22.31V24.455Z" fill="#00000A"/>
</svg>
