<svg width="96" height="143" viewBox="0 0 96 143" fill="none" xmlns="http://www.w3.org/2000/svg">
<path d="M36.6055 98.64C33.5335 98.64 31.1868 97.36 29.5655 94.8C28.0295 92.24 26.9628 88.9547 26.3655 84.944C25.8535 80.9333 25.5975 76.752 25.5975 72.4C24.4882 76.496 23.0802 80.5493 21.3735 84.56C19.6668 88.5707 17.7468 91.8987 15.6135 94.544C13.5655 97.1893 11.3895 98.512 9.0855 98.512C7.0375 98.512 5.3735 97.5733 4.0935 95.696C2.8135 93.7333 1.87483 91.1733 1.2775 88.016C0.680167 84.8587 0.3815 81.4453 0.3815 77.776C0.3815 75.1307 0.594834 72.144 1.0215 68.816C1.44817 65.488 2.13083 62.16 3.0695 58.832C4.00817 55.504 5.28817 52.4747 6.9095 49.744C8.61617 46.928 10.7068 44.6667 13.1815 42.96C15.6562 41.2533 18.6002 40.4 22.0135 40.4C23.9762 40.4 25.5548 40.8267 26.7495 41.68C26.9202 37.1573 27.1335 32.8053 27.3895 28.624C27.6455 24.4427 27.9442 21.1573 28.2855 18.768C28.5415 17.1467 28.8828 15.312 29.3095 13.264C29.8215 11.216 30.5042 9.25333 31.3575 7.376C32.2962 5.41333 33.4055 3.792 34.6855 2.51199C36.0508 1.23199 37.6722 0.591995 39.5495 0.591995C41.9388 0.591995 43.7308 1.18933 44.9255 2.384C46.1202 3.49333 46.9308 4.944 47.3575 6.73599C47.8695 8.44266 48.1255 10.2773 48.1255 12.24C48.1255 13.3493 48.0828 14.5013 47.9975 15.696C47.9122 16.8053 47.7842 17.8293 47.6135 18.768C47.1015 22.9493 46.1202 27.5573 44.6695 32.592C43.2188 37.6267 41.5122 42.5333 39.5495 47.312C37.6722 52.0053 35.8375 56.0587 34.0455 59.472C33.9602 60.0693 33.8748 61.392 33.7895 63.44C33.7042 65.488 33.6615 67.8773 33.6615 70.608C33.6615 73.168 33.7042 75.856 33.7895 78.672C33.9602 81.4027 34.2588 83.9627 34.6855 86.352C35.1122 88.656 35.6668 90.576 36.3495 92.112C37.1175 93.5627 38.0988 94.288 39.2935 94.288C40.4882 94.288 41.5548 93.7333 42.4935 92.624C43.4322 91.4293 44.2855 89.9787 45.0535 88.272C45.8215 86.5653 46.4188 84.944 46.8455 83.408C47.3575 81.7867 47.7415 80.592 47.9975 79.824C48.1682 79.1413 48.5095 78.8 49.0215 78.8C49.4482 78.8 49.6615 79.2693 49.6615 80.208V80.848C49.6615 83.152 49.1068 85.712 47.9975 88.528C46.9735 91.2587 45.4802 93.648 43.5175 95.696C41.6402 97.6587 39.3362 98.64 36.6055 98.64ZM33.7895 53.84C35.4108 50.3413 36.9468 46.416 38.3975 42.064C39.8482 37.6267 41.0428 33.104 41.9815 28.496C43.0055 23.888 43.5175 19.5787 43.5175 15.568C43.5175 14.8853 43.5175 14.2453 43.5175 13.648C43.5175 13.0507 43.4748 12.4533 43.3895 11.856C43.3042 10.6613 43.0482 9.63733 42.6215 8.784C42.1948 7.84533 41.6402 7.376 40.9575 7.376C40.6162 7.376 40.1895 7.67466 39.6775 8.272C39.1655 8.78399 38.6535 9.76533 38.1415 11.216C37.8855 11.984 37.5442 13.7333 37.1175 16.464C36.7762 19.1093 36.3922 22.2667 35.9655 25.936C35.6242 29.52 35.2828 33.1893 34.9415 36.944C34.6002 40.6133 34.3015 43.9413 34.0455 46.928C33.8748 49.8293 33.7895 51.8773 33.7895 53.072V53.84ZM13.5655 88.016C15.0162 88.016 16.3815 86.992 17.6615 84.944C18.9415 82.8107 20.0935 80.2507 21.1175 77.264C22.2268 74.2773 23.1228 71.4613 23.8055 68.816C24.7442 65.4027 25.3842 61.9893 25.7255 58.576C26.1522 55.0773 26.4082 51.5787 26.4935 48.08L26.6215 44.496C26.1095 44.24 25.5122 44.112 24.8295 44.112C22.9522 44.112 21.0322 45.0507 19.0695 46.928C17.1068 48.72 15.5282 50.8533 14.3335 53.328C12.7975 56.5707 11.6455 60.368 10.8775 64.72C10.1948 69.072 9.8535 73.168 9.8535 77.008C9.8535 77.6053 9.8535 78.2453 9.8535 78.928C9.8535 79.6107 9.89617 80.2507 9.9815 80.848C10.1522 83.408 10.5788 85.2427 11.2615 86.352C11.9442 87.4613 12.7122 88.016 13.5655 88.016ZM44.6845 142.032C41.6978 142.032 39.6072 140.581 38.4125 137.68C37.1325 134.779 36.4925 131.195 36.4925 126.928C36.4925 125.136 36.5778 123.216 36.7485 121.168C36.9192 119.205 37.1752 117.243 37.5165 115.28C37.9432 112.549 38.5405 109.861 39.3085 107.216C40.0765 104.571 40.8872 102.053 41.7405 99.664C42.9352 96.2507 44.2578 93.0507 45.7085 90.064C47.2445 86.992 48.0125 83.6213 48.0125 79.952V79.44C48.0125 74.4053 47.7992 69.712 47.3725 65.36C47.0312 61.008 46.5618 57.2533 45.9645 54.096C45.4525 50.9387 44.9405 48.6347 44.4285 47.184C46.1352 46.672 47.5858 46.0747 48.7805 45.392C49.9752 44.7093 51.0845 44.3253 52.1085 44.24H52.7485C54.3698 44.24 55.3938 45.0933 55.8205 46.8C56.2472 48.4213 56.5032 50.384 56.5885 52.688C56.6738 54.224 56.7165 56.2293 56.7165 58.704C56.7165 61.1787 56.7592 63.9093 56.8445 66.896C58.0392 62.6293 59.4472 58.4907 61.0685 54.48C62.6898 50.4693 64.4818 47.184 66.4445 44.624C68.4072 41.9787 70.4125 40.656 72.4605 40.656C75.0205 40.656 76.9832 41.552 78.3485 43.344C79.7992 45.136 80.8232 47.3973 81.4205 50.128C82.1032 52.7733 82.4872 55.4613 82.5725 58.192C82.7432 60.8373 82.8285 63.056 82.8285 64.848C82.8285 69.2853 82.2312 73.936 81.0365 78.8C79.9272 83.664 78.0925 87.8027 75.5325 91.216H76.4285C79.5005 91.216 82.5298 89.808 85.5165 86.992C88.5885 84.0907 91.1912 79.7387 93.3245 73.936C93.6658 73.0827 94.0498 72.656 94.4765 72.656C95.0738 72.656 95.3725 73.1253 95.3725 74.064C95.3725 74.4053 95.3298 74.6613 95.2445 74.832C92.9405 81.488 90.0818 86.3093 86.6685 89.296C83.3405 92.2827 80.0552 93.776 76.8125 93.776C76.3005 93.776 75.7885 93.7333 75.2765 93.648C74.7645 93.4773 74.2525 93.3493 73.7405 93.264C72.3752 94.7147 70.7965 95.8667 69.0045 96.72C67.2125 97.5733 65.2072 98 62.9885 98C60.5138 98 58.6365 97.488 57.3565 96.464V102.096C57.3565 104.741 57.3565 107.131 57.3565 109.264C57.3565 111.483 57.3138 113.275 57.2285 114.64C56.9725 120.016 56.5032 124.411 55.8205 127.824C54.9672 132.005 53.6872 135.419 51.9805 138.064C50.2738 140.709 47.9698 142.032 45.0685 142.032H44.6845ZM61.0685 94.544C62.4338 94.544 63.6712 94.1173 64.7805 93.264C66.7432 91.728 68.3218 89.2533 69.5165 85.84C70.7965 82.3413 71.6925 78.8853 72.2045 75.472C72.4605 74.0213 72.6312 72.272 72.7165 70.224C72.8872 68.176 72.9725 66.0853 72.9725 63.952C72.9725 60.2827 72.6738 56.9973 72.0765 54.096C71.4792 51.1093 70.3272 49.616 68.6205 49.616C67.5965 49.616 66.5298 50.512 65.4205 52.304C64.3965 54.096 63.3725 56.4427 62.3485 59.344C61.3245 62.2453 60.3432 65.36 59.4045 68.688C58.5512 71.9307 57.7832 75.0453 57.1005 78.032C57.1858 80.5067 57.2285 82.9813 57.2285 85.456C57.2285 87.9307 57.2285 90.4053 57.2285 92.88C58.3378 93.9893 59.6178 94.544 61.0685 94.544ZM44.1725 137.936C44.6845 137.936 45.1965 137.552 45.7085 136.784C46.3058 136.101 46.8178 134.949 47.2445 133.328C47.8418 131.109 48.2258 128.251 48.3965 124.752C48.6525 121.253 48.7805 117.584 48.7805 113.744C48.7805 109.563 48.6952 105.467 48.5245 101.456C48.3538 97.5307 48.1832 94.2453 48.0125 91.6C47.2445 93.392 46.3912 95.5253 45.4525 98C44.5138 100.475 43.7032 103.077 43.0205 105.808C42.1672 108.88 41.4845 111.995 40.9725 115.152C40.3752 118.395 40.0765 121.637 40.0765 124.88C40.0765 127.611 40.3325 130.341 40.8445 133.072C41.1005 134.267 41.5698 135.376 42.2525 136.4C42.8498 137.424 43.4898 137.936 44.1725 137.936Z" fill="white"/>
</svg>
